<svg width="30" height="29" viewBox="0 0 30 29" fill="none" xmlns="http://www.w3.org/2000/svg">
<path d="M27.4861 6.55734C27.2145 6.21505 26.7167 6.15765 26.3743 6.42936C26.0319 6.70106 25.9746 7.19877 26.2463 7.54117C27.5651 9.20303 28.4172 11.8523 28.4172 14.2903C28.4172 16.7511 27.5494 19.4203 26.2064 21.0905C25.9325 21.431 25.9866 21.9291 26.3272 22.203C26.4734 22.3206 26.6485 22.3778 26.8226 22.3778C27.0541 22.3778 27.2835 22.2767 27.4399 22.0822C28.9951 20.1482 30 17.0898 30 14.2903C29.9999 11.5172 29.0132 8.48173 27.4861 6.55734Z" fill="#C3CFC8"/>
<path d="M22.306 9.03196C21.9636 9.30366 21.9064 9.80137 22.1779 10.1438C22.9122 11.0692 23.4452 12.8175 23.4452 14.3008C23.4452 15.7971 22.9023 17.5579 22.1544 18.4876C21.8805 18.8282 21.9344 19.3262 22.275 19.6003C22.4213 19.7179 22.5964 19.7751 22.7705 19.7751C23.0019 19.7751 23.2313 19.674 23.3877 19.4798C24.5208 18.0712 25.028 15.8638 25.028 14.3009C25.028 12.7522 24.5302 10.562 23.418 9.16016C23.1461 8.81765 22.6484 8.76036 22.306 9.03196Z" fill="#C3CFC8"/>
<path d="M18.7402 0.18103C18.4541 0.18103 18.1675 0.272934 17.8883 0.454315L8.44123 6.59045C7.73132 7.05155 7.19604 8.03759 7.19604 8.88404V19.7516C7.19604 20.5981 7.73132 21.5841 8.44123 22.0452L17.8883 28.1812C18.1674 28.3626 18.454 28.4545 18.7402 28.4545C19.3641 28.4545 19.9957 27.9676 19.9957 27.0371V1.59842C19.9957 0.667878 19.3641 0.18103 18.7402 0.18103ZM18.413 26.6346L9.3034 20.7178C9.04362 20.549 8.77877 20.0614 8.77877 19.7515V8.88393C8.77877 8.57414 9.04351 8.08645 9.3034 7.91762L18.413 2.00085V26.6346Z" fill="#C3CFC8"/>
<path d="M4.22188 7.45032H1.84652C0.8284 7.45032 0 8.27872 0 9.29683V19.3388C0 20.3569 0.8284 21.1853 1.84652 21.1853H4.22188C5.23999 21.1853 6.0684 20.3569 6.0684 19.3388V9.29683C6.0684 8.27861 5.23999 7.45032 4.22188 7.45032ZM4.48567 19.3387C4.48567 19.4817 4.36485 19.6025 4.22188 19.6025H1.84652C1.70354 19.6025 1.58273 19.4817 1.58273 19.3387V9.29683C1.58273 9.15386 1.70354 9.03305 1.84652 9.03305H4.22188C4.36485 9.03305 4.48567 9.15386 4.48567 9.29683V19.3387Z" fill="#C3CFC8"/>
</svg>
