<svg width="30" height="30" viewBox="0 0 30 30" fill="none" xmlns="http://www.w3.org/2000/svg">
<path d="M27.4861 7.2537C27.2145 6.9114 26.7167 6.854 26.3743 7.12571C26.0319 7.39741 25.9746 7.89512 26.2463 8.23752C27.5652 9.89939 28.4172 12.5487 28.4172 14.9867C28.4172 17.4474 27.5494 20.1166 26.2064 21.7868C25.9325 22.1273 25.9866 22.6255 26.3272 22.8994C26.4734 23.0169 26.6485 23.0741 26.8226 23.0741C27.0541 23.0741 27.2835 22.973 27.4399 22.7786C28.9951 20.8446 30 17.7861 30 14.9867C29.9999 12.2135 29.0132 9.17808 27.4861 7.2537Z" fill="#68866F"/>
<path d="M22.306 9.72837C21.9636 10.0001 21.9063 10.4978 22.1779 10.8402C22.9122 11.7657 23.4452 13.5139 23.4452 14.9972C23.4452 16.4935 22.9023 18.2543 22.1544 19.184C21.8805 19.5246 21.9344 20.0227 22.275 20.2967C22.4212 20.4143 22.5964 20.4715 22.7705 20.4715C23.0019 20.4715 23.2313 20.3704 23.3877 20.1762C24.5208 18.7677 25.028 16.5602 25.028 14.9973C25.028 13.4486 24.5302 11.2584 23.4179 9.85657C23.146 9.51406 22.6484 9.45677 22.306 9.72837Z" fill="#68866F"/>
<path d="M18.7402 0.877441C18.4541 0.877441 18.1675 0.969345 17.8883 1.15073L8.44123 7.28686C7.73132 7.74796 7.19604 8.734 7.19604 9.58045V20.448C7.19604 21.2945 7.73132 22.2805 8.44123 22.7416L17.8883 28.8776C18.1674 29.059 18.454 29.1509 18.7402 29.1509C19.3641 29.1509 19.9957 28.664 19.9957 27.7335V2.29483C19.9957 1.36429 19.3641 0.877441 18.7402 0.877441ZM18.413 27.331L9.3034 21.4142C9.04362 21.2454 8.77877 20.7578 8.77877 20.4479V9.58034C8.77877 9.27055 9.04351 8.78286 9.3034 8.61403L18.413 2.69726V27.331Z" fill="#68866F"/>
<path d="M4.22188 8.14667H1.84652C0.828401 8.14667 0 8.97507 0 9.99318V20.0352C0 21.0533 0.828401 21.8817 1.84652 21.8817H4.22188C5.24 21.8817 6.0684 21.0533 6.0684 20.0352V9.99318C6.0684 8.97496 5.24 8.14667 4.22188 8.14667ZM4.48567 20.0351C4.48567 20.178 4.36485 20.2989 4.22188 20.2989H1.84652C1.70354 20.2989 1.58273 20.178 1.58273 20.0351V9.99318C1.58273 9.85021 1.70354 9.7294 1.84652 9.7294H4.22188C4.36485 9.7294 4.48567 9.85021 4.48567 9.99318V20.0351Z" fill="#68866F"/>
</svg>
