<svg width="100" height="100" viewBox="0 0 100 100" fill="none" xmlns="http://www.w3.org/2000/svg">
<circle cx="50" cy="50" r="48" stroke="#C3CFC8" stroke-width="4"/>
<path d="M36.5 33C36.5 35.2794 35.9835 37.2689 35.2243 38.6355C34.4369 40.0529 33.5886 40.5 33 40.5C32.4114 40.5 31.5631 40.0529 30.7757 38.6355C30.0165 37.2689 29.5 35.2794 29.5 33C29.5 30.7206 30.0165 28.7311 30.7757 27.3645C31.5631 25.9471 32.4114 25.5 33 25.5C33.5886 25.5 34.4369 25.9471 35.2243 27.3645C35.9835 28.7311 36.5 30.7206 36.5 33Z" fill="#C3CFC8" stroke="#C3CFC8" stroke-width="3"/>
<path d="M70.5 33C70.5 35.2794 69.9835 37.2689 69.2243 38.6355C68.4369 40.0529 67.5886 40.5 67 40.5C66.4114 40.5 65.5631 40.0529 64.7757 38.6355C64.0165 37.2689 63.5 35.2794 63.5 33C63.5 30.7206 64.0165 28.7311 64.7757 27.3645C65.5631 25.9471 66.4114 25.5 67 25.5C67.5886 25.5 68.4369 25.9471 69.2243 27.3645C69.9835 28.7311 70.5 30.7206 70.5 33Z" fill="#C3CFC8" stroke="#C3CFC8" stroke-width="3"/>
<mask id="path-4-inside-1_5_28" fill="white">
<path d="M76 55.5C76 62.263 73.3134 68.749 68.5312 73.5312C63.749 78.3134 57.263 81 50.5 81C43.737 81 37.251 78.3134 32.4688 73.5312C27.6866 68.749 25 62.263 25 55.5L50.5 55.5H76Z"/>
</mask>
<path d="M76 55.5C76 62.263 73.3134 68.749 68.5312 73.5312C63.749 78.3134 57.263 81 50.5 81C43.737 81 37.251 78.3134 32.4688 73.5312C27.6866 68.749 25 62.263 25 55.5L50.5 55.5H76Z" stroke="#C3CFC8" stroke-width="8" mask="url(#path-4-inside-1_5_28)"/>
</svg>
