<svg width="52" height="49" viewBox="0 0 52 49" fill="none" xmlns="http://www.w3.org/2000/svg">
<circle cx="24" cy="24" r="23" fill="#C3CFC8"/>
<path d="M47.2 24.1C47.2 36.8578 36.8578 47.2 24.1 47.2C11.3422 47.2 1 36.8578 1 24.1C1 11.3422 11.3422 1 24.1 1C27.3312 1 30.4075 1.66343 33.2 2.86151" stroke="#68866F" stroke-width="2" stroke-linecap="round"/>
<path d="M30.644 16.246C30.644 17.257 30.8738 18.1228 31.1948 18.7005C31.5345 19.3121 31.8442 19.404 31.954 19.404C32.0639 19.404 32.3735 19.3121 32.7133 18.7005C33.0342 18.1228 33.264 17.257 33.264 16.246C33.264 15.235 33.0342 14.3692 32.7133 13.7915C32.3735 13.1799 32.0639 13.088 31.954 13.088C31.8442 13.088 31.5345 13.1799 31.1948 13.7915C30.8738 14.3692 30.644 15.235 30.644 16.246Z" fill="#68866F" stroke="#68866F" stroke-width="2"/>
<path d="M14.936 16.246C14.936 17.257 15.1658 18.1228 15.4868 18.7005C15.8265 19.3121 16.1362 19.404 16.246 19.404C16.3558 19.404 16.6655 19.3121 17.0053 18.7005C17.3262 18.1228 17.556 17.257 17.556 16.246C17.556 15.235 17.3262 14.3692 17.0053 13.7915C16.6655 13.1799 16.3558 13.088 16.246 13.088C16.1362 13.088 15.8265 13.1799 15.4868 13.7915C15.1658 14.3692 14.936 15.235 14.936 16.246Z" fill="#68866F" stroke="#68866F" stroke-width="2"/>
<path d="M16.2 29C16.2 30.5913 16.9902 32.1174 18.3967 33.2426C19.8032 34.3679 21.7109 35 23.7 35C25.6891 35 27.5968 34.3679 29.0033 33.2426C30.4098 32.1174 31.2 30.5913 31.2 29" stroke="#68866F" stroke-width="2" stroke-linecap="round"/>
<path fill-rule="evenodd" clip-rule="evenodd" d="M42.7 18C43.7833 18 44.6615 17.1218 44.6615 16.0385L44.6615 2.96154C44.6615 1.87821 43.7833 1 42.7 1V1C41.6167 1 40.7385 1.87821 40.7385 2.96154L40.7385 16.0385C40.7385 17.1218 41.6167 18 42.7 18V18Z" fill="#68866F"/>
<path fill-rule="evenodd" clip-rule="evenodd" d="M34.2 9.49999C34.2 10.5833 35.0782 11.4615 36.1616 11.4615H49.2385C50.3218 11.4615 51.2 10.5833 51.2 9.49999V9.49999C51.2 8.41666 50.3218 7.53845 49.2385 7.53845H36.1616C35.0782 7.53845 34.2 8.41666 34.2 9.49999V9.49999Z" fill="#68866F"/>
</svg>
