<svg xmlns="http://www.w3.org/2000/svg" viewBox="0 0 256 256">
    <path d="m110.34 56.73-1.32 13.45q-.06.63.56.51.15-.03.3-.08.41-.14.7.18.37.41.14.93-.14.31-.48.31l-13.25-.04q-.53 0-.45-.52l2.65-16.74a.59.58 4.6 0 1 .58-.49h16q1.4 0 .28.84l-1.07.8q-.71.53-1.59.45l-2.35-.19q-.63-.05-.7.59ZM141.54 69.692a13.26 12.66 12.2 0 1-15.635 9.572 13.26 12.66 12.2 0 1-10.285-15.176 13.26 12.66 12.2 0 1 15.635-9.572 13.26 12.66 12.2 0 1 10.286 15.176Zm-3.894-.04a9.28 8.85 12.9 0 0-7.07-10.699 9.28 8.85 12.9 0 0-11.022 6.555 9.28 8.85 12.9 0 0 7.07 10.699 9.28 8.85 12.9 0 0 11.022-6.555ZM75.26 104.17l9.6-28.09q.27-.78 1.09-.77l25.36.22q.54.01.66.54 1.5 6.75 2.92 13.31.14.61.42 1.17.46.92-.49 1.51-1.17.73-2.17 1.5-.43.33-.49.88l-1.36 14.01a2.09 2.08-68.1 0 0 .79 1.86l5.35 4.24q.68.55-.19.55l-31.06-.01a2.63 2.62 67.6 0 1-1.83-.77l-8.92-8.95q-.19-.19-.11-.44.07-.22.23-.4.14-.16.2-.36Zm15.05-8.74a.35.35 0 0 0-.38-.5l-9.05 1.66a.35.35 0 0 0-.27.46l2.78 7.48a.35.35 0 0 0 .35.23l1.93-.14a.35.35 0 0 0 .29-.2l4.35-8.99ZM147.61 93.82l-4.72-3.23a.32.32 0 0 1-.13-.33l2.89-14.53a.32.32 0 0 1 .31-.26l29.51.02a.32.32 0 0 1 .3.22l9.85 29.48a.32.32 0 0 1-.08.33l-9.48 9.47a.32.32 0 0 1-.22.09l-33.08.01a.32.32 0 0 1-.19-.57l5.99-4.72a.32.32 0 0 0 .12-.27l-.93-15.46a.32.32 0 0 0-.14-.25Zm2.07-13.21a.35.35 0 0 0-.46.38l2.31 17.31a.35.35 0 0 0 .35.3l14.6.05a.35.35 0 0 0 .35-.35V86.51a.35.35 0 0 0-.24-.33l-16.91-5.57Zm30.78 16.47a.35.35 0 0 0-.27-.47l-9.06-1.71a.35.35 0 0 0-.38.5l4.43 9.1a.35.35 0 0 0 .31.2l1.9.02a.35.35 0 0 0 .34-.23l2.73-7.41ZM118.84 81.14c5.42 3.29 13.73 3.88 19.45.45q1.15-.7.99.64l-2.83 22.52a1.69 1.68 72.5 0 1-.52 1.01q-4.55 4.3-10.52 1.66-2.85-1.26-3.4-4.56-1.77-10.51-3.54-21.47a.25.25 0 0 1 .37-.25Z"/>
    <path d="M132.42 110.64c1.16-.22 2.55-1.09 3.78-1.61 2.36-1 3.66-2.82 4.19-5.46q.7-3.54 1.33-7.24.13-.77.74-.28l.22.18q.45.37.48.94l.49 9.49q.03.58-.42.93l-5.64 4.45q-.51.4-1.15.4l-13.89-.05q-.52 0-.93-.33l-5.68-4.52q-.4-.31-.38-.82.18-4.66.91-8.48.35-1.83.66 0 .51 3.01 1.22 6.01.34 1.46 1.12 2.05c1.88 1.4 3.92 3.47 6.08 4.06q3.37.92 6.87.28ZM30.76 130.01q-1.24 3.48-2.68 6.96-1.33 3.2-1.2 6.57.13 3.46.25 7.08a.51.51 0 0 1-.51.53l-7.08.01q-.53 0-.51-.53.14-3.86-.02-7.86c-.16-4.03 1.71-7.61 2.87-11.31q.93-2.99 2.61-4.99c2.42-2.88 6.07-4.51 9.67-5.8 2.08-.75 4.2-.18 6.31-.48q2.05-.3.4.96-3.8 2.93-7.95 5.91-1.5 1.07-2.16 2.95ZM225.95 127.77l-8.74-6.49q-1.98-1.47.46-1.11c1.63.24 3.18-.06 4.75.4q5.41 1.58 9.7 5.31c.85.75 2.03 2.97 2.48 4.27 1.43 4.13 3.54 8.36 3.38 12.85q-.14 4.08.01 7.77.02.38-.36.38l-6.41-.01q-.35 0-.35-.35l.13-9.66q.02-1.03-.36-2l-4.05-10.51q-.2-.52-.64-.85Z"/>
    <path d="m75.6 130.87-4.11 1.79q-.56.25-.78.82c-1.03 2.7-2.62 5.28-2.58 8.33q.07 4.43.08 8.96 0 .48-.48.48l-38.02-.04q-.71-.01-.67-.71.24-3.82-.08-7.41-.2-2.18.64-4.23 1.86-4.56 3.4-8.88a1.59 1.57 81.8 0 1 .53-.72l11.3-8.59q.49-.37 1.12-.37l166.26-.01q.4 0 .73.25l11.3 8.55q.53.4.76 1.02 1.62 4.46 3.49 9 .76 1.84.51 3.84-.49 4.1-.08 7.67.06.51-.45.51l-38.51.16a.92.92 0 0 1-.92-.91q-.03-3.84.07-8.1c.07-3.2-1.49-5.97-2.63-8.82q-.21-.53-.73-.75l-4.17-1.83q-.61-.27-.52.39l2.66 19.01q.08.58-.51.58H74a.54.53 4.2 0 1-.53-.61l2.67-18.97q.1-.69-.54-.41Zm-14.75 1.2.76 4.74a.65.63 13.3 0 0 .28.44q.6.41 1.53.28.69-.09.58-.78l-1.08-6.42a1.13 1.13 0 0 0-1-.94q-6.93-.68-13.52-.01a1.28 1.27 7.5 0 0-1.06.81l-2.37 6.35q-.32.85.59.92l.92.08q.83.07 1.11-.72l1.71-4.77q.22-.63.9-.63h9.89q.66 0 .76.65Zm135.55-.18a.54.54 0 0 1 .53-.46l10.44-.01a.54.54 0 0 1 .52.37l1.98 5.79a.54.54 0 0 0 .58.36l1.5-.21a.54.54 0 0 0 .43-.72l-2.59-7.22a.54.54 0 0 0-.51-.36h-14.42a.54.54 0 0 0-.53.45l-1.21 7.37a.54.54 0 0 0 .6.62l1.38-.17a.54.54 0 0 0 .46-.45l.84-5.36ZM28.65 157.37h32.56a.43.43 0 0 1 .43.4l.23 3.04a.43.43 0 0 1-.42.46H29.28a.43.43 0 0 1-.42-.34l-.63-3.04a.43.43 0 0 1 .42-.52ZM180.69 173.5H77.15a.3.3 0 0 1-.29-.22l-4.02-15.53a.3.3 0 0 1 .29-.38h110.84a.3.3 0 0 1 .29.36l-3.28 15.53a.3.3 0 0 1-.29.24ZM227.9 161.27h-32.41a.48.48 0 0 1-.48-.49l.09-2.94a.48.48 0 0 1 .48-.47h32.79a.48.48 0 0 1 .47.56l-.47 2.94a.48.48 0 0 1-.47.4ZM29.97 163.23h31.7a.46.46 0 0 1 .45.35l.68 2.65a.46.46 0 0 1-.44.57h-32a.46.46 0 0 1-.46-.39l-.38-2.65a.46.46 0 0 1 .45-.53ZM195.16 163.23h32.31a.31.31 0 0 1 .3.36l-.48 2.95a.31.31 0 0 1-.3.26h-32.58a.31.31 0 0 1-.3-.39l.75-2.95a.31.31 0 0 1 .3-.23ZM30.85 168.79l31.96-.01a.35.35 0 0 1 .34.25l1.12 3.64a.35.35 0 0 1-.33.45l-31.62-.01a.35.35 0 0 1-.33-.22l-1.47-3.62a.35.35 0 0 1 .33-.48ZM194.24 168.78h32.04a.56.56 0 0 1 .51.79l-1.44 3.22a.56.56 0 0 1-.51.33h-31.33a.56.56 0 0 1-.55-.68l.73-3.22a.56.56 0 0 1 .55-.44ZM33.25 175.17h31.53a.33.33 0 0 1 .32.26l.83 3.58a.33.33 0 0 1-.33.4l-30.99-.01a.33.33 0 0 1-.31-.21l-1.36-3.57a.33.33 0 0 1 .31-.45ZM192.54 175.17h31.58a.41.41 0 0 1 .39.56l-1.32 3.41a.41.41 0 0 1-.38.26h-31.18a.41.41 0 0 1-.4-.52l.92-3.41a.41.41 0 0 1 .39-.3ZM77.2 198.33l-5.63-19.41a.32.32 0 0 1 .31-.41l16.38.01a.32.32 0 0 1 .32.34l-.33 5.45a.32.32 0 0 1-.07.18l-10.42 13.95a.32.32 0 0 1-.56-.11ZM168.92 184.43l-.51-5.58a.3.3 0 0 1 .3-.33l16.67.03a.3.3 0 0 1 .28.38l-5.43 19.55a.3.3 0 0 1-.53.1l-10.72-13.99a.3.3 0 0 1-.06-.16ZM35.65 181.29h30.84a.37.37 0 0 1 .35.27l.8 2.97a.37.37 0 0 1-.36.47H36.95a.37.37 0 0 1-.34-.22l-1.3-2.97a.37.37 0 0 1 .34-.52ZM220.84 185.01l-31.08-.02a.3.3 0 0 1-.28-.4l1.14-3.1a.3.3 0 0 1 .28-.2h30.94a.3.3 0 0 1 .28.39l-.99 3.12a.3.3 0 0 1-.29.21ZM38.02 187.01h30.03a.41.41 0 0 1 .39.28l1.19 3.43a.41.41 0 0 1-.39.54H39.37a.41.41 0 0 1-.38-.26l-1.35-3.43a.41.41 0 0 1 .38-.56ZM189.16 187.01l30.53-.01a.41.41 0 0 1 .38.57l-1.47 3.44a.41.41 0 0 1-.38.25h-29.97a.41.41 0 0 1-.39-.51l.9-3.43a.41.41 0 0 1 .4-.31ZM40.31 193.25h29.72a.37.37 0 0 1 .34.24l.9 2.33a.37.37 0 0 1-.34.5H41.46a.37.37 0 0 1-.33-.21l-1.15-2.33a.37.37 0 0 1 .33-.53ZM216.2 196.32h-29.42a.42.42 0 0 1-.4-.51l.5-2.23a.42.42 0 0 1 .41-.33h30.01a.42.42 0 0 1 .37.61l-1.09 2.23a.42.42 0 0 1-.38.23ZM42.43 198.26h29.32a.38.38 0 0 1 .37.28l.49 1.74a.38.38 0 0 1-.36.48l-29.11-.01a.38.38 0 0 1-.36-.24l-.7-1.73a.38.38 0 0 1 .35-.52ZM185.89 198.26h29.44a.34.34 0 0 1 .33.43l-.57 1.99a.34.34 0 0 1-.33.25l-29.53-.06a.34.34 0 0 1-.32-.45l.66-1.93a.34.34 0 0 1 .32-.23Z"/>
</svg>
